<?xml version="1.0" encoding="UTF-8" standalone="no"?>
<svg xmlns="http://www.w3.org/2000/svg" viewBox="0 0 24 24">
<style>
	g path { stroke: none; }
	g.root { display: none; }
	g.root:target { display: inline; }
	g line { stroke: black; }
	g circle { stroke: black; }
	g polyline { stroke: black; }
</style>
<g class="root" id="client_testimonials" data-name="Client Testimonials">
	<path d="M23.526 9.06L22.666 9.687L22.905 9.683L22.944 11.496C22.947 11.645 22.878 11.784 22.756 11.872L18.647 14.84C18.569 14.897 18.477 14.926 18.382 14.926C18.332 14.926 18.283 14.918 18.236 14.901L17.286 14.577L17.358 14.366C15.31 15.843 13.37 17.238 12.989 17.503C12.387 17.922 11.62 17.984 11.218 17.984C10.966 17.984 10.595 17.963 10.296 17.857L9.713 18.255L9.203 17.508L9.772 17.12C9.772 16.794 9.894 16.421 10.022 16.12C10.143 15.838 10.484 15.139 11.038 14.755C11.742 14.266 20.642 7.856 20.732 7.791C20.934 7.646 21.217 7.691 21.363 7.893L21.558 8.162L22.679 7.387C22.796 7.306 22.943 7.284 23.078 7.329C23.213 7.373 23.319 7.478 23.365 7.611L23.687 8.548C23.752 8.736 23.686 8.942 23.526 9.06ZM11.554 15.497C11.09 15.819 10.732 16.658 10.681 17.028C10.797 17.055 10.981 17.08 11.218 17.08C11.723 17.08 12.181 16.964 12.473 16.761C12.75 16.568 13.904 15.74 15.323 14.718L14.409 13.454C12.964 14.492 11.797 15.328 11.554 15.497ZM20.895 8.789C19.941 9.475 17.359 11.334 15.144 12.927L16.057 14.189C18.277 12.59 20.862 10.724 21.804 10.044L20.895 8.789ZM22.029 10.998C21.171 11.617 19.618 12.737 18.036 13.877L18.307 13.971L22.034 11.278L22.029 10.998ZM22.702 8.47L22.089 8.894L22.134 8.957L22.723 8.527L22.702 8.47ZM21.331 7.123C21.257 7.294 21.09 7.398 20.915 7.398C20.855 7.398 20.795 7.385 20.737 7.361C20.507 7.263 20.4 6.998 20.498 6.767L20.659 6.392L8.832 1.047C8.559 1.626 8.032 2.752 7.519 3.885C7.416 4.112 7.148 4.214 6.921 4.111C6.692 4.007 6.591 3.74 6.695 3.513C7.431 1.884 8.196 0.274 8.204 0.258C8.309 0.036 8.574-0.061 8.799 0.04L21.436 5.751C21.66 5.852 21.762 6.115 21.665 6.341L21.331 7.123ZM6.908 5.238C6.906 5.245 6.902 5.252 6.899 5.259C6.898 5.263 6.895 5.267 6.893 5.27L6.893 5.27L6.892 5.274C6.892 5.275 6.892 5.275 6.892 5.275L6.874 5.312C6.799 5.479 6.635 5.577 6.463 5.577C6.4 5.577 6.337 5.564 6.276 5.537C6.049 5.434 5.947 5.167 6.05 4.939C6.053 4.932 6.057 4.925 6.06 4.919C6.061 4.914 6.064 4.909 6.066 4.906L6.066 4.904C6.066 4.904 6.067 4.904 6.067 4.904L6.083 4.866C6.187 4.638 6.455 4.537 6.683 4.639C6.91 4.742 7.012 5.011 6.908 5.238ZM4.354 15.793L4.724 14.967L9.026 16.887L8.657 17.713L4.354 15.793ZM5.332 13.605L5.721 12.789L9.76 14.704L9.371 15.522L5.332 13.605ZM6.271 11.538L6.656 10.72L11.731 13.101L11.347 13.919L6.271 11.538ZM17.764 8.205L17.391 9.029L9.11 5.286L9.482 4.463L17.764 8.205ZM7.215 9.487L7.574 8.658L14.106 11.481L13.746 12.31L7.215 9.487ZM6.349 6.663C4.456 10.843 2.033 16.115 1.343 17.613L13.155 22.951L16.629 15.432C16.734 15.206 17.003 15.107 17.229 15.212C17.456 15.315 17.555 15.584 17.45 15.811L13.79 23.737C13.712 23.903 13.549 24 13.378 24C13.316 24 13.252 23.987 13.192 23.959L0.554 18.249C0.445 18.2 0.359 18.108 0.318 17.996C0.275 17.883 0.28 17.758 0.331 17.649C0.359 17.584 3.307 11.187 5.524 6.291C5.627 6.063 5.895 5.962 6.122 6.065C6.351 6.168 6.451 6.435 6.349 6.663Z" />
</g>
<g class="root" id="complete" data-name="complete">
	<path d="M12 0A12.013 12.013-4.991 0 0 0 12a12.013 12.013 0 0 0 12 12a12.013 12.013 0 0 0 12-12A12.013 12.013-4.991 0 0 12 0Zm6.654 9.555l-7.664 7.663a1.262 1.262 0 0 1-0.886 0.367v0.519l-0.011-0.519a1.262 1.262 0 0 1-0.89-0.383l-3.866-4.006a1.254 1.254 0 0 1 0.032-1.771a1.247 1.247 0 0 1 0.869-0.351a1.242 1.242 0 0 1 0.902 0.383l2.981 3.089L16.879 7.785a1.246 1.246 0 0 1 0.886-0.367a1.246 1.246 0 0 1 0.886 0.367a1.255 1.255 0 0 1 0 1.773Z" />
</g>
<g class="root" id="contact_us" data-name="Contact Us">
	<path d="M21.504 9.008C21.451 9.117 21.355 9.199 21.24 9.237L18.336 10.159L18.068 9.316L19.692 8.8L15.277 7.292L15.563 6.455L20.36 8.094L17.888 1.519C17.792 1.697 17.677 1.908 17.548 2.143L17.335 2.532L16.559 2.105L16.771 1.718C16.867 1.545 16.954 1.386 17.03 1.244L6.308 5.075C6.546 5.157 6.811 5.245 7.039 5.31L7.465 5.432L7.221 6.283L6.796 6.162C6.469 6.069 6.081 5.935 5.788 5.83L7.254 9.799L6.423 10.105L4.617 5.214C4.576 5.104 4.58 4.981 4.631 4.874C4.68 4.766 4.772 4.684 4.883 4.645L17.807 0.026C18.034-0.055 18.285 0.061 18.371 0.287L21.519 8.659C21.563 8.773 21.557 8.899 21.504 9.008ZM10.633 11.098L9.894 10.609L11.758 7.787L12.496 8.274L10.633 11.098ZM7.965 5.496L13.76 7.151C14.152 6.439 15.154 4.617 16.06 2.971L16.273 2.582L17.049 3.009L16.835 3.398C15.679 5.498 14.366 7.886 14.366 7.886C14.286 8.031 14.135 8.117 13.977 8.117C13.937 8.117 13.896 8.11 13.855 8.098L7.722 6.346L7.965 5.496ZM16.797 21.789L11.149 21.789L11.149 20.903L16.797 20.903L16.797 21.789ZM11.149 18.706L16.797 18.706L16.797 19.591L11.149 19.591L11.149 18.706ZM8.772 16.016C8.772 17.255 7.763 18.264 6.523 18.264C5.283 18.264 4.274 17.255 4.274 16.016C4.274 14.776 5.283 13.768 6.523 13.768C7.763 13.768 8.772 14.776 8.772 16.016ZM5.16 16.016C5.16 16.767 5.772 17.378 6.523 17.378C7.276 17.378 7.887 16.767 7.887 16.016C7.887 15.264 7.276 14.653 6.523 14.653C5.772 14.653 5.16 15.264 5.16 16.016ZM18.701 12.573L18.701 23.558C18.701 23.803 18.502 24 18.258 24L2.896 24C2.652 24 2.453 23.803 2.453 23.558L2.453 17.571C2.453 17.326 2.652 17.129 2.896 17.129C3.14 17.129 3.338 17.326 3.338 17.571L3.338 23.115L17.816 23.115L17.816 13.015L3.338 13.015L3.338 14.916C3.338 15.161 3.14 15.358 2.896 15.358C2.652 15.358 2.453 15.161 2.453 14.916L2.453 12.573C2.453 12.329 2.652 12.13 2.896 12.13L18.258 12.13C18.502 12.13 18.701 12.329 18.701 12.573ZM2.896 15.755C3.14 15.755 3.338 15.953 3.338 16.197L3.338 16.238C3.338 16.481 3.14 16.68 2.896 16.68C2.652 16.68 2.453 16.481 2.453 16.238L2.453 16.197C2.453 15.953 2.652 15.755 2.896 15.755Z" />
</g>
<g class="root" id="date" data-name="date">
	<path id="Path_166" class="cls-1" transform="translate(0 0)" d="M23.16 3.057a2.886 2.886 0 0 0-2.138-0.891H18.884V1.4A1.158 1.158 0 0 0 17.815 0.242H16.889a1.158 1.158 0 0 0-1.158 1.158v0.766H8.302V1.4A1.194 1.194 0 0 0 7.126 0.242H6.289a1.176 1.176 0 0 0-1.158 1.176v0.748H3.064A3.064 3.064 0 0 0 0 5.213H0v15.463A3.046 3.046 0 0 0 3.047 23.758H16.889a3.171 3.171 0 0 0 2.245-0.944l3.919-3.919a3.118 3.118 0 0 0 0.944-2.245V5.248A2.957 2.957 0 0 0 23.16 3.057ZM1.907 20.658V8.312H22.126V16.044H18.474a2.138 2.138 0 0 0-2.138 2.138h0v3.563H3.064A1.176 1.176 0 0 1 1.907 20.658Z" />
</g>
<g class="root" id="datetime" data-name="datetime">
	<path d="M19.06 1.412H17.648v-0.706a0.706 0.706 0 0 0-0.706-0.705a0.706 0.706 0 0 0-0.705 0.705v0.706H7.76v-0.706a0.706 0.706 0 0 0-0.705-0.705a0.706 0.706 0 0 0-0.706 0.705v0.706H4.941a4.234 4.234 0 0 0-4.235 4.235v14.118A4.234 4.234-19.81 0 0 4.941 24H19.06a4.234 4.234 0 0 0 4.235-4.235v-14.118A4.234 4.234-19.81 0 0 19.06 1.412ZM12.001 19.765a7.06 7.06 0 0 1-4.991-2.068a7.061 7.061 0 0 1-2.068-4.991a7.06 7.06 0 0 1 2.068-4.991a7.061 7.061 0 0 1 4.991-2.068a7.06 7.06 0 0 1 4.991 2.068a7.061 7.061 0 0 1 2.068 4.991a7.06 7.06 0 0 1-2.068 4.991A7.061 7.061-19.81 0 1 12.001 19.765Zm3.53-7.059a0.708 0.708 0 0 1-0.208 0.498a0.704 0.704 0 0 1-0.498 0.207H12.001a0.704 0.704 0 0 1-0.705-0.705v-3.53a0.705 0.705 0 0 1 0.705-0.705a0.705 0.705 0 0 1 0.705 0.705v2.824h2.118a0.705 0.705 0 0 1 0.706 0.705Z" />
</g>
<g class="root" id="globe" data-name="globe">
	<path d="M12 21.549a9.36 9.36 0 0 1-5.052-1.464l0.48-2.256a2.671 2.671 0 0 0-0.18-1.644l-0.732-1.584a0.587 0.587 0 0 0-0.456-0.336l-2.652-0.372a0.319 0.319 0 0 1-0.204-0.528l0.456-0.564a0.632 0.632 0 0 1 0.528-0.204l0.996 0.156a0.856 0.856 0 0 0 0.348-0.024l1.344-0.3a0.253 0.253 0 0 0 0.12-0.048l0.888-0.432a0.566 0.566 0 0 0 0.324-0.432l0.36-2.652a0.564 0.564 0 0 0-0.36-0.612l-0.456-0.168a0.6 0.6 0 0 1-0.396-0.528a0.586 0.586 0 0 1 0.528-0.612l0.66-0.048a0.583 0.583 0 0 0 0.528-0.612l-0.048-0.804l-0.084-1.596a0.536 0.536 0 0 0-0.372-0.504l-0.36-0.12a9.394 9.394 0 0 1 3.768-0.756a8.304 8.304 0 0 1 2.124 0.252l0.072 1.416v0.048l-0.18 1.764a0.258 0.258 0 0 0 0.048 0.18l0.204 0.3a0.253 0.253 0 0 0 0.384 0.048l0.528-0.48a0.277 0.277 0 0 1 0.432 0.132l0.024 0.072a0.24 0.24 0 0 0 0.228 0.18l0.6 0.024a0.161 0.161 0 0 0 0.108-0.024l0.504-0.204a0.246 0.246 0 0 1 0.324 0.324l-0.276 0.912a0.232 0.232 0 0 1-0.228 0.18l-0.672 0.024h-0.084l-0.852-0.252a0.454 0.454 0 0 0-0.18 0l-0.408 0.18a0.298 0.298 0 0 1-0.204 0l-0.528-0.252a0.258 0.258 0 0 0-0.228 0.024l-0.684 0.48a0.226 0.226 0 0 0-0.096 0.204l0.096 0.78a0.215 0.215 0 0 1-0.144 0.252l-0.504 0.228a0.26 0.26 0 0 0-0.084 0.408l0.36 0.324a0.346 0.346 0 0 0 0.228 0.072l0.648-0.144a0.329 0.329 0 0 1 0.156 0.024l0.3 0.12a5.488 5.488 0 0 1 0.48 0.36a0.272 0.272 0 0 0 0.384-0.048a0.34 0.34 0 0 1 0.18-0.132l0.504-0.048a0.208 0.208 0 0 0 0.144-0.072l0.06-0.06a0.24 0.24 0 0 1 0.396 0.108l0.252 0.708c0.024 0.024 0.024 0.048 0.048 0.072l0.288 0.384a0.274 0.274 0 0 1-0.024 0.348l-0.708 0.66a0.26 0.26 0 0 1-0.36 0l-0.684-0.636c-0.024-0.024-0.048-0.024-0.072-0.048l-0.96-0.408c-0.024 0-0.048-0.024-0.072-0.024l-1.272-0.12h-0.096l-1.056 0.3a1.015 1.015 0 0 0-0.708 0.684l-0.252 0.78a0.922 0.922 0 0 0 0.048 0.756l0.396 0.864a1.1 1.1 0 0 0 0.864 0.6l0.96 0.108c0.024 0 0.072 0.024 0.096 0.024l0.54 0.3a0.247 0.247 0 0 1 0.12 0.204l0.072 0.96a2.771 2.771 0 0 0 0.288 0.96l0.456 0.852a0.277 0.277 0 0 0 0.072 0.108l0.756 0.552a0.308 0.308 0 0 0 0.432-0.072l0.252-0.336c0.024-0.048 0.048-0.072 0.072-0.12l0.552-1.392a0.072 0.072 0 0 1 0.036-0.072l0.168-2.004c0-0.024 0.036-0.048 0.036-0.072l0.396-0.828a0.284 0.284 0 0 1 0.252-0.156l1.368 0.18a0.36 0.36 0 0 0 0.228-0.084l0.252-0.276a0.272 0.272 0 0 0 0.024-0.324l-0.66-0.864a0.275 0.275 0 0 1 0.156-0.408l0.252-0.048c0.048 0 0.432-0.024 0.552-0.048h0.048l0.612 0.096a0.264 0.264 0 0 1 0.252 0.288l-0.156 1.74a0.157 0.157 0 0 0 0.036 0.12l0.48 1.248a9.574 9.574 0 0 1-8.772 5.784h0Zm0-21.549a12 12 0 1 0 12 12A12 12-5645.373 0 0 12 0Z" />
</g>
<g class="root" id="home" data-name="home">
	<path style="stroke-width: 2;" d="M23.871 13.328l-11.548-11.974a0.437 0.437 0 0 0-0.32-0.137h0a0.443 0.443 0 0 0-0.328 0.133l-11.548 11.98a0.448 0.448 0 0 0 0.008 0.635a0.472 0.472 0 0 0 0.328 0.121a0.448 0.448 0 0 0 0.312-0.136l1.501-1.557V22.331a0.456 0.456 0 0 0 0.456 0.449h6.332a0.448 0.448 0 0 0 0.448-0.449V15.363h4.968v6.969a0.456 0.456 0 0 0 0.456 0.449h6.332a0.456 0.456 0 0 0 0.456-0.449V12.39l1.493 1.553a0.464 0.464 0 0 0 0.32 0.139h0.008a0.445 0.445 0 0 0 0.328-0.755h0Zm-8.935 1.137h-5.871a0.448 0.448 0 0 0-0.448 0.448v6.972h-5.439V11.452l8.816-9.151l8.824 9.151V21.883h-5.439v-6.972a0.448 0.448 0 0 0-0.448-0.448h0Z" />
</g>
<g class="root" id="location_pin" data-name="location-pin">
	<path d="M12.134 0.001a9.118 9.118 0 0 0-1.521 0.107a8.949 8.949 0 0 0-7.558 8.705C2.974 13.756 8.757 20.897 11.859 24c3.908-3.908 9.01-9.97 9.087-14.912l-5.109-0.08h0a3.959 3.959 0 0 1-1.395 2.187a3.959 3.959 0 0 1-2.451 0.852a3.959 3.959 0 0 1-2.792-1.161a3.959 3.959 0 0 1-1.154-2.795a3.959 3.959 0 0 1 1.16-2.792a3.959 3.959 0 0 1 2.795-1.154a3.959 3.959 0 0 1 2.793 1.16a3.952 3.952 0 0 1 1.154 2.795l-3.952 0l3.952 0h0a3.866 3.866 0 0 1-0.112 0.907l5.107 0.077a8.95 8.95 0 0 0-8.813-9.083Z" />
</g>
<g class="root" id="meet_our_team" data-name="Meet Our Team">
	<path d="M5.446 24L5.446 23.179L18.554 23.179L18.554 24L5.446 24ZM8.578 11.216L8.578 20.334L7.758 20.334L7.758 11.216L8.578 11.216ZM14.361 20.43L9.59 20.43L9.59 19.611L14.361 19.611L14.361 20.43ZM13.494 19.128L13.494 13.435L14.313 13.435L14.313 19.128L13.494 19.128ZM9.734 19.128L9.734 13.435L10.554 13.435L10.554 19.128L9.734 19.128ZM9.59 11.891L14.361 11.891L14.361 12.712L9.59 12.712L9.59 11.891ZM16.193 11.216L16.193 20.334L15.374 20.334L15.374 11.216L16.193 11.216ZM17.06 22.215L6.987 22.215L6.987 21.395L17.06 21.395L17.06 22.215ZM6.265 9.915L6.987 9.915L6.987 8.835C6.987 7.062 8.475 5.621 10.305 5.621L13.694 5.621C15.524 5.621 17.012 7.062 17.012 8.835L17.012 9.915L17.83 9.915L17.83 10.734L6.265 10.734L6.265 9.915ZM10.713 6.441C10.937 6.957 11.451 7.319 12.049 7.319C12.633 7.319 13.156 6.971 13.385 6.441L10.713 6.441ZM7.806 9.915L16.193 9.915L16.193 8.835C16.193 7.535 15.106 6.475 13.758 6.443L14.203 6.593C13.891 7.518 13.025 8.139 12.049 8.139C11.008 8.139 10.129 7.435 9.86 6.479C8.694 6.681 7.806 7.659 7.806 8.835L7.806 9.915ZM12 5.331C10.531 5.331 9.337 4.136 9.337 2.667C9.337 1.195 10.531 0 12 0C13.468 0 14.662 1.195 14.662 2.667C14.662 4.136 13.468 5.331 12 5.331ZM12 0.821C10.982 0.821 10.155 1.648 10.155 2.667C10.155 3.683 10.982 4.512 12 4.512C13.017 4.512 13.844 3.683 13.844 2.667C13.844 1.648 13.017 0.821 12 0.821Z" />
</g>
<g class="root" id="practice_areas" data-name="Practice Areas">
	<path d="M18.194 22.784L12.901 2.921L12.901 22.935L6.889 22.935L6.889 2.047L12.901 2.047L12.901 2.595L18.626 1.064L24 21.232L18.194 22.784ZM11.837 3.114L7.954 3.114L7.954 21.868L11.837 21.868L11.837 3.114ZM17.872 2.37L14.123 3.372L18.949 21.478L22.697 20.476L17.872 2.37ZM19.206 19.764L18.933 18.735L21.484 18.053L21.758 19.083L19.206 19.764ZM19.394 13.867C19.345 14.054 19.198 14.199 19.011 14.247C18.967 14.258 18.923 14.263 18.88 14.263C18.735 14.263 18.594 14.204 18.493 14.095L16.956 12.462C16.818 12.315 16.774 12.103 16.842 11.914L17.515 10.065C17.574 9.903 17.708 9.778 17.874 9.733C18.041 9.688 18.22 9.726 18.353 9.834L19.824 11.043C19.985 11.176 20.054 11.391 20 11.593L19.394 13.867ZM18.259 11.137L17.956 11.97L18.612 12.667L18.883 11.65L18.259 11.137ZM15.094 4.609L17.646 3.926L17.919 4.957L15.368 5.638L15.094 4.609ZM9.497 10.47C9.596 10.329 9.757 10.243 9.929 10.243C10.103 10.241 10.265 10.324 10.365 10.464L11.475 12.013C11.597 12.182 11.608 12.407 11.505 12.589L10.334 14.63C10.238 14.795 10.063 14.898 9.872 14.898C9.87 14.898 9.867 14.898 9.865 14.898C9.672 14.895 9.495 14.788 9.403 14.617L8.34 12.643C8.243 12.466 8.257 12.248 8.372 12.083L9.497 10.47ZM9.887 13.269L10.411 12.356L9.939 11.699L9.433 12.425L9.887 13.269ZM11.304 20.3L8.611 20.3L8.611 19.234L11.304 19.234L11.304 20.3ZM8.549 4.556L11.179 4.556L11.179 5.623L8.549 5.623L8.549 4.556ZM0 1.921L6.011 1.921L6.011 22.809L0 22.809L0 1.921ZM1.064 21.743L4.947 21.743L4.947 2.989L1.064 2.989L1.064 21.743ZM3.455 14.486C3.36 14.652 3.184 14.754 2.993 14.754C2.991 14.754 2.988 14.754 2.986 14.754C2.793 14.751 2.616 14.644 2.524 14.474L1.461 12.498C1.365 12.321 1.377 12.105 1.493 11.94L2.617 10.326C2.716 10.185 2.879 10.101 3.051 10.099C3.052 10.099 3.053 10.099 3.054 10.099C3.225 10.099 3.386 10.182 3.487 10.322L4.596 11.868C4.719 12.038 4.73 12.264 4.626 12.445L3.455 14.486ZM3.06 11.555L2.554 12.281L3.008 13.125L3.532 12.212L3.06 11.555ZM1.659 4.432L4.352 4.432L4.352 5.498L1.659 5.498L1.659 4.432ZM4.415 20.112L1.785 20.112L1.785 19.046L4.415 19.046L4.415 20.112Z" />
</g>
<g class="root" id="ribbon" data-name="ribbon">
	<path id="Path_339" class="cls-1" d="M21.109 0.005H2.68A0.617 0.617 1.993 0 0 1.993 0.529A0.384 0.384 1.993 0 0 1.993 0.692V23.275a0.803 0.803 0 0 0 0.884 0.721a0.838 0.838 0 0 0 0.5-0.256l8.749-8.284L20.609 23.729a0.803 0.803 0 0 0 1.163 0a0.733 0.733 0 0 0 0.244-0.5V0.692a0.733 0.733 0 0 0-0.698-0.686Z" />
</g>
<g class="root" id="search" data-name="search">
	<path d="M23.234 21.861L17.522 15.92c1.468-1.746 2.274-3.942 2.274-6.23c0-5.343-4.347-9.69-9.69-9.69s-9.69 4.347-9.69 9.69s4.347 9.69 9.69 9.69c2.006 0 3.918-0.604 5.552-1.754l5.756 5.986c0.24 0.25 0.564 0.387 0.91 0.387c0.328 0 0.639-0.126 0.876-0.352C23.7 23.164 23.716 22.364 23.234 21.861zM10.104 2.529c3.95 0 7.163 3.213 7.163 7.163s-3.213 7.163-7.163 7.163s-7.163-3.213-7.163-7.163S6.156 2.529 10.104 2.529z" />
</g>
</svg>