<?xml version="1.0" encoding="UTF-8" standalone="no"?>
<svg xmlns="http://www.w3.org/2000/svg">
<style>
.root {
	display:none;
}

.root:target {
	display: block;
}
</style>

<g class="root" id="header" viewBox="0 0 204 11">
	<g class="center">
		<path class="line" d="M103,10.5h-62" style="stroke-dashoffset: 62; stroke-dasharray: 62;"/>
		<path class="line" d="M101,10.5h62" style="stroke-dashoffset: 62; stroke-dasharray: 62;"/>
		<path class="line" d="M101,2h102" style="stroke-width: 3px; stroke-dashoffset: 102; stroke-dasharray: 102;"/>
		<path class="line" d="M103,2h-102" style="stroke-width: 3px; stroke-dashoffset: 102; stroke-dasharray: 102;"/>
	</g>
	<g class="left">
		<path class="line" d="M0,10.5h124" style="stroke-dashoffset: 124; stroke-dasharray: 124;"/>
		<path class="line" d="M0,2h204" style="stroke-width: 3px; stroke-dashoffset: 204; stroke-dasharray: 204;"/>
	</g>
	<g class="right">
		<path class="line" d="M204,10.5h-124" style="stroke-dashoffset: 124; stroke-dasharray: 124;"/>
		<path class="line" d="M204,2h-204" style="stroke-width: 3px; stroke-dashoffset: 204; stroke-dasharray: 204;"/>
	</g>
</g>

<g class="root" id="header-small" viewBox="0 0 130 7">
	<g class="center">
		<line class="line" x1="0" y1="3.6" x2="62.1" y2="3.6" style="stroke-dashoffset:63; stroke-dasharray: 63;"/>
		<line class="line" x1="130" y1="3.5" x2="67.9" y2="3.5" style="stroke-dashoffset:63; stroke-dasharray: 63;"/>
		<circle class="circle" cx="65" cy="3.5" r="2.9" style="stroke-dashoffset:19; stroke-dasharray: 19;"/>
	</g>
	<g class="left">
		<line class="line" x1="3.5" y1="3.4" x2="130" y2="3.4" style="stroke-dashoffset:127; stroke-dasharray: 127;"/>
		<circle class="circle" cx="3.5" cy="3.5" r="2.9" style="stroke-dashoffset:19; stroke-dasharray: 19;"/>
	</g>
	<g class="right">
		<line class="line" x1="127.1" y1="3.6" x2="0.6" y2="3.6" style="stroke-dashoffset:127; stroke-dasharray: 127;"/>
		<circle class="circle" cx="127.1" cy="3.5" r="2.9" style="stroke-dashoffset:19; stroke-dasharray: 19;"/>
	</g>
</g>

<g class="root" id="arrow-right" viewBox="0 0 5.2 9.7">
	<path class="line short-arrow" d="M0.3,9.4l3.8-4.1l0.7-0.8" style="stroke-width: 1; stroke-dashoffset: 7; stroke-dasharray: 7;"/>
	<path class="line short-arrow" d="M4.9,5.2L4.1,4.4L0.3,0.3" style="stroke-width: 1; stroke-dashoffset: 7; stroke-dasharray: 7;"/>
</g>

<g class="root" id="arrow-up" viewBox="0 0 9.7 5.2">
	<path class="line short-arrow" d="M9.4,4.9L5.3,1.1L4.5,0.4" style="stroke-width: 1; stroke-dashoffset: 7; stroke-dasharray: 7;"/>
	<path class="line short-arrow" d="M5.2,0.3L4.4,1.1L0.3,4.9" style="stroke-width: 1; stroke-dashoffset: 7; stroke-dasharray: 7;"/>
</g>	

<g class="root" id="arrow-left" viewBox="0 0 5.2 9.7">
	<path class="line short-arrow" d="M0.4,4.5l0.7,0.8l3.8,4.1" style="stroke-width: 1; stroke-dashoffset: 7; stroke-dasharray: 7;"/>
	<path class="line short-arrow" d="M4.9,0.3L1.1,4.4L0.3,5.2" style="stroke-width: 1; stroke-dashoffset: 7; stroke-dasharray: 7;"/>
</g>

<g class="root" id="arrow-down" viewBox="0 0 9.7 5.2">
	<path class="line short-arrow" d="M4.5,4.9l0.8-0.7l4.1-3.8" style="stroke-width: 1; stroke-dashoffset: 7; stroke-dasharray: 7;"/>
	<path class="line short-arrow" d="M0.3,0.3l4.1,3.8l0.8,0.8" style="stroke-width: 1; stroke-dashoffset: 7; stroke-dasharray: 7;"/>
</g>

</svg>